<svg
  xmlns="http://www.w3.org/2000/svg"
  viewBox="0 0 64 64"
  role="img"
  aria-labelledby="spartanTitle spartanDesc"
>
  <title id="spartanTitle">Spartan Scraper favicon</title>
  <desc id="spartanDesc">Shield-like badge with a bold S in the center.</desc>
  <defs>
    <linearGradient id="shieldFill" x1="0%" x2="100%" y1="0%" y2="100%">
      <stop offset="0%" stop-color="#f97316" />
      <stop offset="100%" stop-color="#b91c1c" />
    </linearGradient>
  </defs>
  <path
    d="M32 4 52 12v17c0 13.5-7.7 24.4-20 31C19.7 53.4 12 42.5 12 29V12L32 4Z"
    fill="url(#shieldFill)"
  />
  <path
    d="M39.5 19.5c-1.8-2-4.4-3-7.7-3-4.5 0-8.3 2.6-8.3 7.1 0 3.3 2.2 5.4 6.8 6.4l2.6.6c2.2.5 3.1 1.3 3.1 2.7 0 1.8-1.6 3-4.3 3-2.6 0-4.9-1-6.6-2.8l-4.1 3.9c2.5 2.8 6.1 4.3 10.6 4.3 6 0 10-3.2 10-8.1 0-3.9-2.2-6-7.1-7l-2.6-.6c-2-.4-2.8-1-2.8-2.3 0-1.7 1.5-2.8 3.7-2.8 2.3 0 4.2.8 5.7 2.4l4-3.8Z"
    fill="#fff7ed"
  />
</svg>
